<svg xmlns="http://www.w3.org/2000/svg" enable-background="new 0 0 135 135" viewBox="0 0 135 135" id="Modernhouse"><rect width="128" height="3.16" x="3.5" y="104.145" fill="#90877a" class="color7a8490 svgShape"></rect><rect width="21.304" height="2.378" x="12.376" y="38.603" fill="#7f5212" class="color7f4612 svgShape"></rect><rect width="55.001" height="2.378" x="69.89" y="38.603" fill="#7f5212" class="color7f4612 svgShape"></rect><polygon fill="#f4e7d4" points="101.71 47.587 101.71 71.606 124.29 71.606 124.29 104.145 69.89 104.145 69.89 40.985 124.29 40.985 124.29 47.587" class="colorf4ead4 svgShape"></polygon><polygon fill="#f4e7d4" points="101.71 71.608 124.29 71.608 124.29 104.148 69.89 104.148 69.89 40.988 124.29 40.988 124.29 47.588 101.71 47.588" class="colorf4ead4 svgShape"></polygon><rect width="12.106" height="22.629" x="70.462" y="81.516" fill="#44423f" class="color44433f svgShape"></rect><polygon fill="#84827f" points="71.035 104.145 69.89 104.145 69.89 80.944 82.568 80.944 82.568 82.089 71.035 82.089" class="color807f84 svgShape"></polygon><rect width="12.105" height="1.145" x="70.463" y="86.836" fill="#84827f" class="color807f84 svgShape"></rect><rect width="1.145" height="23.201" x="81.995" y="80.944" fill="#84827f" class="color807f84 svgShape"></rect><rect width="12.106" height="22.629" x="87.52" y="81.516" fill="#44423f" class="color44433f svgShape"></rect><polygon fill="#84827f" points="88.093 104.145 86.948 104.145 86.948 80.944 99.626 80.944 99.626 82.089 88.093 82.089" class="color807f84 svgShape"></polygon><rect width="12.105" height="1.145" x="87.52" y="86.836" fill="#84827f" class="color807f84 svgShape"></rect><rect width="1.145" height="23.201" x="99.053" y="80.944" fill="#84827f" class="color807f84 svgShape"></rect><rect width="12.106" height="22.629" x="70.462" y="48.972" fill="#44423f" class="color44433f svgShape"></rect><polygon fill="#84827f" points="71.035 71.601 69.89 71.601 69.89 48.399 82.568 48.399 82.568 49.544 71.035 49.544" class="color807f84 svgShape"></polygon><rect width="12.105" height="1.145" x="70.463" y="54.292" fill="#84827f" class="color807f84 svgShape"></rect><rect width="1.145" height="23.201" x="81.995" y="48.399" fill="#84827f" class="color807f84 svgShape"></rect><rect width="20.49" height="63.17" x="13.19" y="40.978" fill="#f4e7d4" class="colorf4ead4 svgShape"></rect><rect width="12.106" height="22.629" x="21.002" y="81.516" fill="#44423f" class="color44433f svgShape"></rect><polygon fill="#84827f" points="21.575 104.145 20.43 104.145 20.43 80.944 33.107 80.944 33.107 82.089 21.575 82.089" class="color807f84 svgShape"></polygon><rect width="12.105" height="1.145" x="21.002" y="86.836" fill="#84827f" class="color807f84 svgShape"></rect><rect width="1.145" height="23.201" x="32.535" y="80.944" fill="#84827f" class="color807f84 svgShape"></rect><rect width="1.636" height="63.167" x="32.044" y="40.978" opacity=".08" fill="#000000" class="color000000 svgShape"></rect><rect width="1.636" height="63.16" x="69.89" y="40.985" opacity=".08" fill="#000000" class="color000000 svgShape"></rect><rect width="16.052" height="23.201" x="104.218" y="80.944" fill="#ddcdb6" class="colorddd0b6 svgShape"></rect><rect width="2.546" height="24.01" x="118.997" y="47.591" fill="#f4e7d4" class="colorf4ead4 svgShape"></rect><rect width="2.546" height="1.621" x="118.997" y="47.591" opacity=".08" fill="#000000" class="color000000 svgShape"></rect><rect width="2.546" height="1.621" x="118.997" y="69.98" opacity=".08" fill="#000000" class="color000000 svgShape"></rect><polygon fill="#93631f" points="69.89 30.248 69.89 104.148 65.33 104.148 65.33 47.318 50.3 47.318 50.3 104.148 33.68 104.148 33.68 30.248" class="color93591f svgShape"></polygon><rect width="38.578" height="2.551" x="32.496" y="27.695" fill="#ed8b00" class="colora06530 svgShape"></rect><g fill="#000000" class="color000000 svgShape"><rect width="36.21" height="1.043" x="33.68" y="46.811" fill="#7f5314" class="color7f4714 svgShape"></rect><rect width="36.21" height="1.043" x="33.68" y="50.927" fill="#7f5314" class="color7f4714 svgShape"></rect><rect width="36.21" height="1.043" x="33.68" y="55.044" fill="#7f5314" class="color7f4714 svgShape"></rect><rect width="36.21" height="1.043" x="33.68" y="59.16" fill="#7f5314" class="color7f4714 svgShape"></rect><rect width="36.21" height="1.043" x="33.68" y="63.276" fill="#7f5314" class="color7f4714 svgShape"></rect><rect width="36.21" height="1.043" x="33.68" y="67.392" fill="#7f5314" class="color7f4714 svgShape"></rect><rect width="36.21" height="1.043" x="33.68" y="71.509" fill="#7f5314" class="color7f4714 svgShape"></rect><rect width="36.21" height="1.043" x="33.68" y="75.625" fill="#7f5314" class="color7f4714 svgShape"></rect><rect width="36.21" height="1.043" x="33.68" y="79.741" fill="#7f5314" class="color7f4714 svgShape"></rect><rect width="36.21" height="1.043" x="33.68" y="83.857" fill="#7f5314" class="color7f4714 svgShape"></rect><rect width="36.21" height="1.043" x="33.68" y="87.974" fill="#7f5314" class="color7f4714 svgShape"></rect><rect width="36.21" height="1.043" x="33.68" y="92.09" fill="#7f5314" class="color7f4714 svgShape"></rect><rect width="36.21" height="1.043" x="33.68" y="96.206" fill="#7f5314" class="color7f4714 svgShape"></rect><rect width="36.21" height="1.043" x="33.68" y="100.322" fill="#7f5314" class="color7f4714 svgShape"></rect></g><rect width="15.029" height="56.834" x="50.297" y="47.311" fill="#f4e7d4" class="colorf4ead4 svgShape"></rect><g fill="#000000" class="color000000 svgShape"><polygon fill="#7f5314" points="65.826 104.145 64.826 104.145 64.826 47.811 50.797 47.811 50.797 104.145 49.797 104.145 49.797 46.811 65.826 46.811" class="color7f4714 svgShape"></polygon></g><polygon points="33.68 40.978 33.68 62.278 13.19 41.788 13.19 40.978" opacity=".08" fill="#000000" class="color000000 svgShape"></polygon><polygon points="69.89 30.248 69.89 67.648 65.33 63.078 50.3 48.048 33.68 31.429 33.68 30.248" opacity=".08" fill="#000000" class="color000000 svgShape"></polygon><polygon points="124.29 80.918 124.29 104.148 106.39 104.148 69.89 67.648 69.89 40.988 84.36 40.988 101.71 58.338 101.71 71.608 114.98 71.608" opacity=".08" fill="#000000" class="color000000 svgShape"></polygon></svg>