<?xml version="1.0" encoding="UTF-8" standalone="no" ?>
<!DOCTYPE svg PUBLIC "-//W3C//DTD SVG 1.1//EN" "http://www.w3.org/Graphics/SVG/1.1/DTD/svg11.dtd">
<svg xmlns="http://www.w3.org/2000/svg" xmlns:xlink="http://www.w3.org/1999/xlink" version="1.1" width="1080" height="1080" viewBox="0 0 1080 1080" xml:space="preserve">
<desc>Created with Fabric.js 5.2.4</desc>
<defs>
</defs>
<g transform="matrix(1 0 0 1 540 540)" id="141b1619-c119-4ba9-bcb9-efc9d5148fae"  >
<rect style="stroke: none; stroke-width: 1; stroke-dasharray: none; stroke-linecap: butt; stroke-dashoffset: 0; stroke-linejoin: miter; stroke-miterlimit: 4; fill: rgb(255,255,255); fill-rule: nonzero; opacity: 1; visibility: hidden;" vector-effect="non-scaling-stroke"  x="-540" y="-540" rx="0" ry="0" width="1080" height="1080" />
</g>
<g transform="matrix(1 0 0 1 540 540)" id="47266e3b-307a-458f-9d3a-961fc72a982f"  >
</g>
<g transform="matrix(2.47 0 0 2.47 540 540)" id="fc5cba83-3f8f-4b44-a893-1672954b26e7"  >
<circle style="stroke: rgb(0,0,0); stroke-width: 0; stroke-dasharray: none; stroke-linecap: butt; stroke-dashoffset: 0; stroke-linejoin: miter; stroke-miterlimit: 4; fill: rgb(205,199,199); fill-rule: nonzero; opacity: 1;" vector-effect="non-scaling-stroke"  cx="0" cy="0" r="35" />
</g>
<g transform="matrix(1.29 0 0 1.29 540 540)"  >
<g style="" vector-effect="non-scaling-stroke"   >
		<g transform="matrix(1 0 0 1 0 38.22)"  >
<rect style="stroke: none; stroke-width: 1; stroke-dasharray: none; stroke-linecap: butt; stroke-dashoffset: 0; stroke-linejoin: miter; stroke-miterlimit: 4; fill: rgb(144,135,122); fill-rule: nonzero; opacity: 1;" vector-effect="non-scaling-stroke"  x="-64" y="-1.58" rx="0" ry="0" width="128" height="3.16" />
</g>
		<g transform="matrix(1 0 0 1 -44.47 -27.71)"  >
<rect style="stroke: none; stroke-width: 1; stroke-dasharray: none; stroke-linecap: butt; stroke-dashoffset: 0; stroke-linejoin: miter; stroke-miterlimit: 4; fill: rgb(127,82,18); fill-rule: nonzero; opacity: 1;" vector-effect="non-scaling-stroke"  x="-10.652" y="-1.189" rx="0" ry="0" width="21.304" height="2.378" />
</g>
		<g transform="matrix(1 0 0 1 29.89 -27.71)"  >
<rect style="stroke: none; stroke-width: 1; stroke-dasharray: none; stroke-linecap: butt; stroke-dashoffset: 0; stroke-linejoin: miter; stroke-miterlimit: 4; fill: rgb(127,82,18); fill-rule: nonzero; opacity: 1;" vector-effect="non-scaling-stroke"  x="-27.5005" y="-1.189" rx="0" ry="0" width="55.001" height="2.378" />
</g>
		<g transform="matrix(1 0 0 1 29.59 5.06)"  >
<polygon style="stroke: none; stroke-width: 1; stroke-dasharray: none; stroke-linecap: butt; stroke-dashoffset: 0; stroke-linejoin: miter; stroke-miterlimit: 4; fill: rgb(244,231,212); fill-rule: nonzero; opacity: 1;" vector-effect="non-scaling-stroke"  points="4.62,-24.98 4.62,-0.96 27.2,-0.96 27.2,31.58 -27.2,31.58 -27.2,-31.58 27.2,-31.58 27.2,-24.98 " />
</g>
		<g transform="matrix(1 0 0 1 29.59 5.07)"  >
<polygon style="stroke: none; stroke-width: 1; stroke-dasharray: none; stroke-linecap: butt; stroke-dashoffset: 0; stroke-linejoin: miter; stroke-miterlimit: 4; fill: rgb(244,231,212); fill-rule: nonzero; opacity: 1;" vector-effect="non-scaling-stroke"  points="4.62,-0.96 27.2,-0.96 27.2,31.58 -27.2,31.58 -27.2,-31.58 27.2,-31.58 27.2,-24.98 4.62,-24.98 " />
</g>
		<g transform="matrix(1 0 0 1 9.02 25.33)"  >
<rect style="stroke: none; stroke-width: 1; stroke-dasharray: none; stroke-linecap: butt; stroke-dashoffset: 0; stroke-linejoin: miter; stroke-miterlimit: 4; fill: rgb(68,66,63); fill-rule: nonzero; opacity: 1;" vector-effect="non-scaling-stroke"  x="-6.053" y="-11.3145" rx="0" ry="0" width="12.106" height="22.629" />
</g>
		<g transform="matrix(1 0 0 1 8.73 25.04)"  >
<polygon style="stroke: none; stroke-width: 1; stroke-dasharray: none; stroke-linecap: butt; stroke-dashoffset: 0; stroke-linejoin: miter; stroke-miterlimit: 4; fill: rgb(132,130,127); fill-rule: nonzero; opacity: 1;" vector-effect="non-scaling-stroke"  points="-5.19,11.6 -6.34,11.6 -6.34,-11.6 6.34,-11.6 6.34,-10.46 -5.19,-10.46 " />
</g>
		<g transform="matrix(1 0 0 1 9.02 19.91)"  >
<rect style="stroke: none; stroke-width: 1; stroke-dasharray: none; stroke-linecap: butt; stroke-dashoffset: 0; stroke-linejoin: miter; stroke-miterlimit: 4; fill: rgb(132,130,127); fill-rule: nonzero; opacity: 1;" vector-effect="non-scaling-stroke"  x="-6.0525" y="-0.5725" rx="0" ry="0" width="12.105" height="1.145" />
</g>
		<g transform="matrix(1 0 0 1 15.07 25.04)"  >
<rect style="stroke: none; stroke-width: 1; stroke-dasharray: none; stroke-linecap: butt; stroke-dashoffset: 0; stroke-linejoin: miter; stroke-miterlimit: 4; fill: rgb(132,130,127); fill-rule: nonzero; opacity: 1;" vector-effect="non-scaling-stroke"  x="-0.5725" y="-11.6005" rx="0" ry="0" width="1.145" height="23.201" />
</g>
		<g transform="matrix(1 0 0 1 26.07 25.33)"  >
<rect style="stroke: none; stroke-width: 1; stroke-dasharray: none; stroke-linecap: butt; stroke-dashoffset: 0; stroke-linejoin: miter; stroke-miterlimit: 4; fill: rgb(68,66,63); fill-rule: nonzero; opacity: 1;" vector-effect="non-scaling-stroke"  x="-6.053" y="-11.3145" rx="0" ry="0" width="12.106" height="22.629" />
</g>
		<g transform="matrix(1 0 0 1 25.79 25.04)"  >
<polygon style="stroke: none; stroke-width: 1; stroke-dasharray: none; stroke-linecap: butt; stroke-dashoffset: 0; stroke-linejoin: miter; stroke-miterlimit: 4; fill: rgb(132,130,127); fill-rule: nonzero; opacity: 1;" vector-effect="non-scaling-stroke"  points="-5.19,11.6 -6.34,11.6 -6.34,-11.6 6.34,-11.6 6.34,-10.46 -5.19,-10.46 " />
</g>
		<g transform="matrix(1 0 0 1 26.07 19.91)"  >
<rect style="stroke: none; stroke-width: 1; stroke-dasharray: none; stroke-linecap: butt; stroke-dashoffset: 0; stroke-linejoin: miter; stroke-miterlimit: 4; fill: rgb(132,130,127); fill-rule: nonzero; opacity: 1;" vector-effect="non-scaling-stroke"  x="-6.0525" y="-0.5725" rx="0" ry="0" width="12.105" height="1.145" />
</g>
		<g transform="matrix(1 0 0 1 32.13 25.04)"  >
<rect style="stroke: none; stroke-width: 1; stroke-dasharray: none; stroke-linecap: butt; stroke-dashoffset: 0; stroke-linejoin: miter; stroke-miterlimit: 4; fill: rgb(132,130,127); fill-rule: nonzero; opacity: 1;" vector-effect="non-scaling-stroke"  x="-0.5725" y="-11.6005" rx="0" ry="0" width="1.145" height="23.201" />
</g>
		<g transform="matrix(1 0 0 1 9.02 -7.21)"  >
<rect style="stroke: none; stroke-width: 1; stroke-dasharray: none; stroke-linecap: butt; stroke-dashoffset: 0; stroke-linejoin: miter; stroke-miterlimit: 4; fill: rgb(68,66,63); fill-rule: nonzero; opacity: 1;" vector-effect="non-scaling-stroke"  x="-6.053" y="-11.3145" rx="0" ry="0" width="12.106" height="22.629" />
</g>
		<g transform="matrix(1 0 0 1 8.73 -7.5)"  >
<polygon style="stroke: none; stroke-width: 1; stroke-dasharray: none; stroke-linecap: butt; stroke-dashoffset: 0; stroke-linejoin: miter; stroke-miterlimit: 4; fill: rgb(132,130,127); fill-rule: nonzero; opacity: 1;" vector-effect="non-scaling-stroke"  points="-5.19,11.6 -6.34,11.6 -6.34,-11.6 6.34,-11.6 6.34,-10.46 -5.19,-10.46 " />
</g>
		<g transform="matrix(1 0 0 1 9.02 -12.64)"  >
<rect style="stroke: none; stroke-width: 1; stroke-dasharray: none; stroke-linecap: butt; stroke-dashoffset: 0; stroke-linejoin: miter; stroke-miterlimit: 4; fill: rgb(132,130,127); fill-rule: nonzero; opacity: 1;" vector-effect="non-scaling-stroke"  x="-6.0525" y="-0.5725" rx="0" ry="0" width="12.105" height="1.145" />
</g>
		<g transform="matrix(1 0 0 1 15.07 -7.5)"  >
<rect style="stroke: none; stroke-width: 1; stroke-dasharray: none; stroke-linecap: butt; stroke-dashoffset: 0; stroke-linejoin: miter; stroke-miterlimit: 4; fill: rgb(132,130,127); fill-rule: nonzero; opacity: 1;" vector-effect="non-scaling-stroke"  x="-0.5725" y="-11.6005" rx="0" ry="0" width="1.145" height="23.201" />
</g>
		<g transform="matrix(1 0 0 1 -44.07 5.06)"  >
<rect style="stroke: none; stroke-width: 1; stroke-dasharray: none; stroke-linecap: butt; stroke-dashoffset: 0; stroke-linejoin: miter; stroke-miterlimit: 4; fill: rgb(244,231,212); fill-rule: nonzero; opacity: 1;" vector-effect="non-scaling-stroke"  x="-10.245" y="-31.585" rx="0" ry="0" width="20.49" height="63.17" />
</g>
		<g transform="matrix(1 0 0 1 -40.45 25.33)"  >
<rect style="stroke: none; stroke-width: 1; stroke-dasharray: none; stroke-linecap: butt; stroke-dashoffset: 0; stroke-linejoin: miter; stroke-miterlimit: 4; fill: rgb(68,66,63); fill-rule: nonzero; opacity: 1;" vector-effect="non-scaling-stroke"  x="-6.053" y="-11.3145" rx="0" ry="0" width="12.106" height="22.629" />
</g>
		<g transform="matrix(1 0 0 1 -40.73 25.04)"  >
<polygon style="stroke: none; stroke-width: 1; stroke-dasharray: none; stroke-linecap: butt; stroke-dashoffset: 0; stroke-linejoin: miter; stroke-miterlimit: 4; fill: rgb(132,130,127); fill-rule: nonzero; opacity: 1;" vector-effect="non-scaling-stroke"  points="-5.19,11.6 -6.34,11.6 -6.34,-11.6 6.34,-11.6 6.34,-10.46 -5.19,-10.46 " />
</g>
		<g transform="matrix(1 0 0 1 -40.45 19.91)"  >
<rect style="stroke: none; stroke-width: 1; stroke-dasharray: none; stroke-linecap: butt; stroke-dashoffset: 0; stroke-linejoin: miter; stroke-miterlimit: 4; fill: rgb(132,130,127); fill-rule: nonzero; opacity: 1;" vector-effect="non-scaling-stroke"  x="-6.0525" y="-0.5725" rx="0" ry="0" width="12.105" height="1.145" />
</g>
		<g transform="matrix(1 0 0 1 -34.39 25.04)"  >
<rect style="stroke: none; stroke-width: 1; stroke-dasharray: none; stroke-linecap: butt; stroke-dashoffset: 0; stroke-linejoin: miter; stroke-miterlimit: 4; fill: rgb(132,130,127); fill-rule: nonzero; opacity: 1;" vector-effect="non-scaling-stroke"  x="-0.5725" y="-11.6005" rx="0" ry="0" width="1.145" height="23.201" />
</g>
		<g transform="matrix(1 0 0 1 -34.64 5.06)"  >
<rect style="stroke: none; stroke-width: 1; stroke-dasharray: none; stroke-linecap: butt; stroke-dashoffset: 0; stroke-linejoin: miter; stroke-miterlimit: 4; fill: rgb(0,0,0); fill-rule: nonzero; opacity: 0.08;" vector-effect="non-scaling-stroke"  x="-0.818" y="-31.5835" rx="0" ry="0" width="1.636" height="63.167" />
</g>
		<g transform="matrix(1 0 0 1 3.21 5.06)"  >
<rect style="stroke: none; stroke-width: 1; stroke-dasharray: none; stroke-linecap: butt; stroke-dashoffset: 0; stroke-linejoin: miter; stroke-miterlimit: 4; fill: rgb(0,0,0); fill-rule: nonzero; opacity: 0.08;" vector-effect="non-scaling-stroke"  x="-0.818" y="-31.58" rx="0" ry="0" width="1.636" height="63.16" />
</g>
		<g transform="matrix(1 0 0 1 44.74 25.04)"  >
<rect style="stroke: none; stroke-width: 1; stroke-dasharray: none; stroke-linecap: butt; stroke-dashoffset: 0; stroke-linejoin: miter; stroke-miterlimit: 4; fill: rgb(221,205,182); fill-rule: nonzero; opacity: 1;" vector-effect="non-scaling-stroke"  x="-8.026" y="-11.6005" rx="0" ry="0" width="16.052" height="23.201" />
</g>
		<g transform="matrix(1 0 0 1 52.77 -7.9)"  >
<rect style="stroke: none; stroke-width: 1; stroke-dasharray: none; stroke-linecap: butt; stroke-dashoffset: 0; stroke-linejoin: miter; stroke-miterlimit: 4; fill: rgb(244,231,212); fill-rule: nonzero; opacity: 1;" vector-effect="non-scaling-stroke"  x="-1.273" y="-12.005" rx="0" ry="0" width="2.546" height="24.01" />
</g>
		<g transform="matrix(1 0 0 1 52.77 -19.1)"  >
<rect style="stroke: none; stroke-width: 1; stroke-dasharray: none; stroke-linecap: butt; stroke-dashoffset: 0; stroke-linejoin: miter; stroke-miterlimit: 4; fill: rgb(0,0,0); fill-rule: nonzero; opacity: 0.08;" vector-effect="non-scaling-stroke"  x="-1.273" y="-0.8105" rx="0" ry="0" width="2.546" height="1.621" />
</g>
		<g transform="matrix(1 0 0 1 52.77 3.29)"  >
<rect style="stroke: none; stroke-width: 1; stroke-dasharray: none; stroke-linecap: butt; stroke-dashoffset: 0; stroke-linejoin: miter; stroke-miterlimit: 4; fill: rgb(0,0,0); fill-rule: nonzero; opacity: 0.08;" vector-effect="non-scaling-stroke"  x="-1.273" y="-0.8105" rx="0" ry="0" width="2.546" height="1.621" />
</g>
		<g transform="matrix(1 0 0 1 -15.72 -0.3)"  >
<polygon style="stroke: none; stroke-width: 1; stroke-dasharray: none; stroke-linecap: butt; stroke-dashoffset: 0; stroke-linejoin: miter; stroke-miterlimit: 4; fill: rgb(147,99,31); fill-rule: nonzero; opacity: 1;" vector-effect="non-scaling-stroke"  points="18.11,-36.95 18.11,36.95 13.55,36.95 13.55,-19.88 -1.48,-19.88 -1.48,36.95 -18.1,36.95 -18.1,-36.95 " />
</g>
		<g transform="matrix(1 0 0 1 -15.71 -38.53)"  >
<rect style="stroke: none; stroke-width: 1; stroke-dasharray: none; stroke-linecap: butt; stroke-dashoffset: 0; stroke-linejoin: miter; stroke-miterlimit: 4; fill: rgb(237,139,0); fill-rule: nonzero; opacity: 1;" vector-effect="non-scaling-stroke"  x="-19.289" y="-1.2755" rx="0" ry="0" width="38.578" height="2.551" />
</g>
		<g transform="matrix(1 0 0 1 -15.72 -20.17)"  >
<rect style="stroke: none; stroke-width: 1; stroke-dasharray: none; stroke-linecap: butt; stroke-dashoffset: 0; stroke-linejoin: miter; stroke-miterlimit: 4; fill: rgb(127,83,20); fill-rule: nonzero; opacity: 1;" vector-effect="non-scaling-stroke"  x="-18.105" y="-0.5215" rx="0" ry="0" width="36.21" height="1.043" />
</g>
		<g transform="matrix(1 0 0 1 -15.72 -16.05)"  >
<rect style="stroke: none; stroke-width: 1; stroke-dasharray: none; stroke-linecap: butt; stroke-dashoffset: 0; stroke-linejoin: miter; stroke-miterlimit: 4; fill: rgb(127,83,20); fill-rule: nonzero; opacity: 1;" vector-effect="non-scaling-stroke"  x="-18.105" y="-0.5215" rx="0" ry="0" width="36.21" height="1.043" />
</g>
		<g transform="matrix(1 0 0 1 -15.72 -11.93)"  >
<rect style="stroke: none; stroke-width: 1; stroke-dasharray: none; stroke-linecap: butt; stroke-dashoffset: 0; stroke-linejoin: miter; stroke-miterlimit: 4; fill: rgb(127,83,20); fill-rule: nonzero; opacity: 1;" vector-effect="non-scaling-stroke"  x="-18.105" y="-0.5215" rx="0" ry="0" width="36.21" height="1.043" />
</g>
		<g transform="matrix(1 0 0 1 -15.72 -7.82)"  >
<rect style="stroke: none; stroke-width: 1; stroke-dasharray: none; stroke-linecap: butt; stroke-dashoffset: 0; stroke-linejoin: miter; stroke-miterlimit: 4; fill: rgb(127,83,20); fill-rule: nonzero; opacity: 1;" vector-effect="non-scaling-stroke"  x="-18.105" y="-0.5215" rx="0" ry="0" width="36.21" height="1.043" />
</g>
		<g transform="matrix(1 0 0 1 -15.72 -3.7)"  >
<rect style="stroke: none; stroke-width: 1; stroke-dasharray: none; stroke-linecap: butt; stroke-dashoffset: 0; stroke-linejoin: miter; stroke-miterlimit: 4; fill: rgb(127,83,20); fill-rule: nonzero; opacity: 1;" vector-effect="non-scaling-stroke"  x="-18.105" y="-0.5215" rx="0" ry="0" width="36.21" height="1.043" />
</g>
		<g transform="matrix(1 0 0 1 -15.72 0.41)"  >
<rect style="stroke: none; stroke-width: 1; stroke-dasharray: none; stroke-linecap: butt; stroke-dashoffset: 0; stroke-linejoin: miter; stroke-miterlimit: 4; fill: rgb(127,83,20); fill-rule: nonzero; opacity: 1;" vector-effect="non-scaling-stroke"  x="-18.105" y="-0.5215" rx="0" ry="0" width="36.21" height="1.043" />
</g>
		<g transform="matrix(1 0 0 1 -15.72 4.53)"  >
<rect style="stroke: none; stroke-width: 1; stroke-dasharray: none; stroke-linecap: butt; stroke-dashoffset: 0; stroke-linejoin: miter; stroke-miterlimit: 4; fill: rgb(127,83,20); fill-rule: nonzero; opacity: 1;" vector-effect="non-scaling-stroke"  x="-18.105" y="-0.5215" rx="0" ry="0" width="36.21" height="1.043" />
</g>
		<g transform="matrix(1 0 0 1 -15.72 8.65)"  >
<rect style="stroke: none; stroke-width: 1; stroke-dasharray: none; stroke-linecap: butt; stroke-dashoffset: 0; stroke-linejoin: miter; stroke-miterlimit: 4; fill: rgb(127,83,20); fill-rule: nonzero; opacity: 1;" vector-effect="non-scaling-stroke"  x="-18.105" y="-0.5215" rx="0" ry="0" width="36.21" height="1.043" />
</g>
		<g transform="matrix(1 0 0 1 -15.72 12.76)"  >
<rect style="stroke: none; stroke-width: 1; stroke-dasharray: none; stroke-linecap: butt; stroke-dashoffset: 0; stroke-linejoin: miter; stroke-miterlimit: 4; fill: rgb(127,83,20); fill-rule: nonzero; opacity: 1;" vector-effect="non-scaling-stroke"  x="-18.105" y="-0.5215" rx="0" ry="0" width="36.21" height="1.043" />
</g>
		<g transform="matrix(1 0 0 1 -15.72 16.88)"  >
<rect style="stroke: none; stroke-width: 1; stroke-dasharray: none; stroke-linecap: butt; stroke-dashoffset: 0; stroke-linejoin: miter; stroke-miterlimit: 4; fill: rgb(127,83,20); fill-rule: nonzero; opacity: 1;" vector-effect="non-scaling-stroke"  x="-18.105" y="-0.5215" rx="0" ry="0" width="36.21" height="1.043" />
</g>
		<g transform="matrix(1 0 0 1 -15.72 21)"  >
<rect style="stroke: none; stroke-width: 1; stroke-dasharray: none; stroke-linecap: butt; stroke-dashoffset: 0; stroke-linejoin: miter; stroke-miterlimit: 4; fill: rgb(127,83,20); fill-rule: nonzero; opacity: 1;" vector-effect="non-scaling-stroke"  x="-18.105" y="-0.5215" rx="0" ry="0" width="36.21" height="1.043" />
</g>
		<g transform="matrix(1 0 0 1 -15.72 25.11)"  >
<rect style="stroke: none; stroke-width: 1; stroke-dasharray: none; stroke-linecap: butt; stroke-dashoffset: 0; stroke-linejoin: miter; stroke-miterlimit: 4; fill: rgb(127,83,20); fill-rule: nonzero; opacity: 1;" vector-effect="non-scaling-stroke"  x="-18.105" y="-0.5215" rx="0" ry="0" width="36.21" height="1.043" />
</g>
		<g transform="matrix(1 0 0 1 -15.72 29.23)"  >
<rect style="stroke: none; stroke-width: 1; stroke-dasharray: none; stroke-linecap: butt; stroke-dashoffset: 0; stroke-linejoin: miter; stroke-miterlimit: 4; fill: rgb(127,83,20); fill-rule: nonzero; opacity: 1;" vector-effect="non-scaling-stroke"  x="-18.105" y="-0.5215" rx="0" ry="0" width="36.21" height="1.043" />
</g>
		<g transform="matrix(1 0 0 1 -15.72 33.34)"  >
<rect style="stroke: none; stroke-width: 1; stroke-dasharray: none; stroke-linecap: butt; stroke-dashoffset: 0; stroke-linejoin: miter; stroke-miterlimit: 4; fill: rgb(127,83,20); fill-rule: nonzero; opacity: 1;" vector-effect="non-scaling-stroke"  x="-18.105" y="-0.5215" rx="0" ry="0" width="36.21" height="1.043" />
</g>
		<g transform="matrix(1 0 0 1 -9.69 8.23)"  >
<rect style="stroke: none; stroke-width: 1; stroke-dasharray: none; stroke-linecap: butt; stroke-dashoffset: 0; stroke-linejoin: miter; stroke-miterlimit: 4; fill: rgb(244,231,212); fill-rule: nonzero; opacity: 1;" vector-effect="non-scaling-stroke"  x="-7.5145" y="-28.417" rx="0" ry="0" width="15.029" height="56.834" />
</g>
		<g transform="matrix(1 0 0 1 -9.69 7.98)"  >
<polygon style="stroke: none; stroke-width: 1; stroke-dasharray: none; stroke-linecap: butt; stroke-dashoffset: 0; stroke-linejoin: miter; stroke-miterlimit: 4; fill: rgb(127,83,20); fill-rule: nonzero; opacity: 1;" vector-effect="non-scaling-stroke"  points="8.01,28.67 7.01,28.67 7.01,-27.67 -7.01,-27.67 -7.01,28.67 -8.01,28.67 -8.01,-28.67 8.01,-28.67 " />
</g>
		<g transform="matrix(1 0 0 1 -44.06 -15.87)"  >
<polygon style="stroke: none; stroke-width: 1; stroke-dasharray: none; stroke-linecap: butt; stroke-dashoffset: 0; stroke-linejoin: miter; stroke-miterlimit: 4; fill: rgb(0,0,0); fill-rule: nonzero; opacity: 0.08;" vector-effect="non-scaling-stroke"  points="10.24,-10.65 10.24,10.65 -10.25,-9.84 -10.25,-10.65 " />
</g>
		<g transform="matrix(1 0 0 1 -15.72 -18.55)"  >
<polygon style="stroke: none; stroke-width: 1; stroke-dasharray: none; stroke-linecap: butt; stroke-dashoffset: 0; stroke-linejoin: miter; stroke-miterlimit: 4; fill: rgb(0,0,0); fill-rule: nonzero; opacity: 0.08;" vector-effect="non-scaling-stroke"  points="18.11,-18.7 18.11,18.7 13.55,14.13 -1.48,-0.9 -18.1,-17.52 -18.1,-18.7 " />
</g>
		<g transform="matrix(1 0 0 1 29.59 5.07)"  >
<polygon style="stroke: none; stroke-width: 1; stroke-dasharray: none; stroke-linecap: butt; stroke-dashoffset: 0; stroke-linejoin: miter; stroke-miterlimit: 4; fill: rgb(0,0,0); fill-rule: nonzero; opacity: 0.08;" vector-effect="non-scaling-stroke"  points="27.2,8.35 27.2,31.58 9.3,31.58 -27.2,-4.92 -27.2,-31.58 -12.73,-31.58 4.62,-14.23 4.62,-0.96 17.89,-0.96 " />
</g>
</g>
</g>
</svg>