<!DOCTYPE svg PUBLIC "-//W3C//DTD SVG 1.1//EN" "http://www.w3.org/Graphics/SVG/1.1/DTD/svg11.dtd">
<!-- Uploaded to: SVG Repo, www.svgrepo.com, Transformed by: SVG Repo Mixer Tools -->
<svg height="100px" width="100px" version="1.1" id="Layer_1" xmlns="http://www.w3.org/2000/svg" xmlns:xlink="http://www.w3.org/1999/xlink" viewBox="-51.27 -51.27 615.20 615.20" xml:space="preserve" fill="#000000">
<g id="SVGRepo_bgCarrier" stroke-width="0">
<path transform="translate(-51.27, -51.27), scale(38.45)" fill="#d6d6d6" d="M9.166.33a2.25 2.25 0 00-2.332 0l-5.25 3.182A2.25 2.25 0 00.5 5.436v5.128a2.25 2.25 0 001.084 1.924l5.25 3.182a2.25 2.25 0 002.332 0l5.25-3.182a2.25 2.25 0 001.084-1.924V5.436a2.25 2.25 0 00-1.084-1.924L9.166.33z" strokewidth="0"/>
</g>
<g id="SVGRepo_tracerCarrier" stroke-linecap="round" stroke-linejoin="round"/>
<g id="SVGRepo_iconCarrier"> <path style="fill:#DB2B42;" d="M232.864,512.656l279.464-280.16L486.28,26.776L280.456,0L0.328,280.128L232.864,512.656z"/> <circle style="fill:#FFFFFF;" cx="380.536" cy="132.448" r="50.528"/> <path style="fill:#8AD5DD;" d="M380.536,89.92c23.488,0,42.528,19.04,42.528,42.528s-19.04,42.528-42.528,42.528 s-42.528-19.04-42.528-42.528S357.048,89.92,380.536,89.92 M380.536,73.92c-32.272,0-58.528,26.256-58.528,58.528 s26.256,58.528,58.528,58.528s58.528-26.256,58.528-58.528S412.808,73.92,380.536,73.92L380.536,73.92z"/> </g>
</svg>